<svg width="30" height="31" viewBox="0 0 30 31" fill="none" xmlns="http://www.w3.org/2000/svg">
<path d="M14.7122 20.1465C17.3816 20.1465 19.5456 17.9079 19.5456 15.1465C19.5456 12.3851 17.3816 10.1465 14.7122 10.1465C12.0429 10.1465 9.87891 12.3851 9.87891 15.1465C9.87891 17.9079 12.0429 20.1465 14.7122 20.1465Z" stroke="#111111" stroke-width="2" stroke-linecap="round" stroke-linejoin="round"/>
<path d="M19.5456 10.1457V16.3957C19.5456 17.3903 19.9275 18.3441 20.6073 19.0474C21.2871 19.7506 22.2092 20.1457 23.1706 20.1457C24.132 20.1457 25.054 19.7506 25.7338 19.0474C26.4137 18.3441 26.7956 17.3903 26.7956 16.3957V15.1457C26.7954 12.3245 25.8727 9.58631 24.1775 7.37637C22.4822 5.16644 20.1142 3.61474 17.4584 2.97358C14.8025 2.33242 12.0152 2.63951 9.54946 3.84492C7.08375 5.05032 5.08473 7.08315 3.87744 9.61286C2.67014 12.1426 2.32558 15.0204 2.89979 17.7784C3.47399 20.5363 4.93318 23.0123 7.0401 24.8035C9.14701 26.5948 11.7777 27.5961 14.5045 27.6446C17.2313 27.6932 19.8937 26.786 22.0589 25.0707" stroke="#111111" stroke-width="2" stroke-linecap="round" stroke-linejoin="round"/>
</svg>
