<?xml version="1.0" encoding="utf-8"?>
<!-- Generator: Adobe Illustrator 25.2.3, SVG Export Plug-In . SVG Version: 6.00 Build 0)  -->
<svg version="1.1" id="Livello_1" xmlns="http://www.w3.org/2000/svg" xmlns:xlink="http://www.w3.org/1999/xlink" x="0px" y="0px"
	 viewBox="0 0 24 24" style="enable-background:new 0 0 24 24;" xml:space="preserve">
<style type="text/css">
	.st0{fill:#FFFFFF;}
</style>
<path class="st0" d="M12,24C5.4,24,0,18.6,0,12S5.4,0,12,0s12,5.4,12,12S18.6,24,12,24z M12,1.8C6.4,1.8,1.8,6.4,1.8,12
	S6.4,22.2,12,22.2S22.2,17.6,22.2,12S17.6,1.8,12,1.8z"/>
<path class="st0" d="M22.1,9.9c-0.1,0-1,2.9-1.5,3.3c-0.6,1.7-4.8,3.7-5.5,0.9c8.4-6.3-1.7-11-2-0.6c-0.6,1.6-4.7,3.2-5.3,0.6
	C17,6.7,4.8,3.8,6.1,14.2c-0.8,1-2.6,1.8-3.9,0.8c0,0.1,0.1,1.4,0.1,1.4c0.3,0.6,4.2-0.4,4.3-1.3c1.6,2.3,5.5,1.7,7-0.5
	C16.2,19.8,24.3,13.9,22.1,9.9z M7.8,11.2c2.5-6.2,2.5,0.4-0.2,1.5C7.6,12.1,7.7,11.6,7.8,11.2z M15.1,11.2c2.5-6.2,2.5,0.4-0.2,1.5
	C14.9,12.1,15,11.6,15.1,11.2z"/>
</svg>
