<?xml version="1.0" encoding="utf-8"?>
<!-- Generator: Adobe Illustrator 25.2.3, SVG Export Plug-In . SVG Version: 6.00 Build 0)  -->
<svg version="1.1" id="Livello_1" xmlns="http://www.w3.org/2000/svg" xmlns:xlink="http://www.w3.org/1999/xlink" x="0px" y="0px"
	 viewBox="0 0 24 24" style="enable-background:new 0 0 24 24;" xml:space="preserve">
<style type="text/css">
	.st0{fill:#FFFFFF;}
</style>
<g>
	<path class="st0" d="M12,24C5.4,24,0,18.6,0,12S5.4,0,12,0s12,5.4,12,12S18.6,24,12,24z M12,1.8C6.4,1.8,1.8,6.4,1.8,12
		S6.4,22.2,12,22.2S22.2,17.6,22.2,12S17.6,1.8,12,1.8z"/>
</g>
<g>
	<g id="XMLID_1_">
		<g>
			<path class="st0" d="M14.2,13.6c0,0.2-0.1,0.3-0.3,0.6c-0.1,0.1-0.2,0.3-0.4,0.5c-0.2,0.3-0.5,0.5-0.8,0.8
				c-0.1,0.1-0.1,0.1-0.2,0.2c-0.1,0-0.1,0.1-0.2,0.1c-0.1,0-0.1,0.1-0.2,0.1c-0.1,0.1-0.3,0.2-0.5,0.3c0,0-0.1,0-0.1,0.1
				c-0.1,0-0.1,0.1-0.2,0.1c-0.1,0-0.1,0-0.2,0.1c0,0-0.1,0-0.1,0c-0.1,0-0.2,0.1-0.3,0.1c-0.3,0.1-0.7,0.1-1.1,0.1
				c-1.4,0-2.5-0.5-3.2-1.5c-0.2-0.3-0.4-0.6-0.5-1c-0.1-0.4-0.2-0.9-0.2-1.4c0-3,2-5.5,3.7-5.5c1.2,0,1.7,0.6,1.7,1.6
				c0,0,0,0,0,0.1c0,1.1-0.6,2.2-1.3,3.1c-0.7,0.9-1.5,1.6-2,2c0,0,0,0,0,0c0,0.2,0.1,0.4,0.2,0.5c0.3,0.6,0.9,0.9,1.9,0.9
				c0.1,0,0.2,0,0.3,0c1.4-0.1,2.4-1.3,2.8-2l0.1-0.1c0,0,0-0.1,0.1-0.1c0,0,0-0.1,0.1-0.1c0,0,0-0.1,0.1-0.1c0,0,0,0,0,0
				c0,0,0,0,0,0c0,0,0,0,0,0h0c0,0,0,0,0,0c0,0,0.1,0,0.1,0C13.9,13.1,14.2,13.4,14.2,13.6z M9.8,9.2c0-0.1,0-0.1,0-0.2
				c0-0.3-0.1-0.4-0.4-0.4c-0.4,0-1.2,1.2-1.6,2.6c-0.1,0.5-0.2,1-0.2,1.5C8.4,12.1,9.7,10.7,9.8,9.2z"/>
		</g>
	</g>
</g>
<g>
	<path class="st0" d="M22.1,9.9c-0.1,0-0.2,0.7-0.7,1.9c0,0.1-0.8,1.4-0.8,1.4c0,0-0.3,0.4-0.3,0.4c-0.5,0.6-1.4,1.8-2.8,2
		c-0.1,0-0.2,0-0.3,0c-1,0-1.6-0.3-1.9-0.9c-0.1-0.1-0.1-0.3-0.2-0.5c0,0,0,0,0,0c0.5-0.3,1.3-1.1,2-2c0.7-0.9,1.3-2,1.3-3.1
		c0,0,0-0.1,0-0.1c0-1-0.5-1.6-1.7-1.6c-1.7,0-3.7,2.5-3.7,5.5c0,0.2,0,0.4,0,0.7l0,0.1c-0.5,0.6-1.4,1.8-2.8,2c-0.1,0-0.2,0-0.3,0
		c-1,0-1.6-0.3-1.9-0.9c-0.1-0.1-0.1-0.3-0.2-0.5c0,0,0,0,0,0c0.5-0.3,1.3-1.1,2-2s1.3-2,1.3-3.1c0,0,0-0.1,0-0.1
		c0-1-0.5-1.6-1.7-1.6c-1.7,0-3.7,2.5-3.7,5.5c0,0.5,0.1,1,0.2,1.4c0,0,0,0,0,0c-0.2,0.2-0.4,0.4-0.5,0.5c-0.3,0.2-0.7,0.6-1.4,0.7
		c-0.2,0-0.6,0.1-1.1,0c-0.4-0.1-0.7-0.3-0.8-0.4v0l0.1,1.4c0,0,0.8,0.3,2.2,0c1.1-0.3,1.9-1,2.2-1.3c0.7,0.9,1.8,1.5,3.2,1.5
		c0.4,0,0.8-0.1,1.1-0.1c0.1,0,0.2,0,0.3-0.1c0,0,0.1,0,0.1,0c0.1,0,0.1,0,0.2-0.1c0.1,0,0.1-0.1,0.2-0.1c0,0,0.1,0,0.1-0.1
		c0.2-0.1,0.3-0.2,0.5-0.3c0.1,0,0.1-0.1,0.2-0.1c0.1,0,0.1-0.1,0.2-0.1c0.1-0.1,0.1-0.1,0.2-0.2c0.3-0.3,0.6-0.5,0.8-0.8
		c0.1,0.2,0.2,0.3,0.3,0.5c0.7,0.9,1.8,1.5,3.2,1.5c0.4,0,0.8-0.1,1.1-0.1c0.1,0,0.2,0,0.3-0.1c0,0,0.1,0,0.1,0c0.1,0,0.1,0,0.2-0.1
		c0.1,0,0.1-0.1,0.2-0.1c0,0,0.1,0,0.1-0.1c0.2-0.1,0.3-0.2,0.5-0.3c0.1,0,0.1-0.1,0.2-0.1c0.1,0,0.1-0.1,0.2-0.1
		c0.1-0.1,0.1-0.1,0.2-0.2c0.3-0.3,0.6-0.5,0.8-0.8c0.1-0.2,0.3-0.3,0.4-0.5c0.3-0.4,0.8-1.1,1-1.6C22.8,11.5,22.3,9.9,22.1,9.9z
		 M7.8,11.2C8.2,9.8,9,8.5,9.4,8.5c0.2,0,0.4,0.1,0.4,0.4c0,0.1,0,0.1,0,0.2c-0.1,1.5-1.4,2.9-2.2,3.4C7.6,12.1,7.7,11.6,7.8,11.2z
		 M15.1,11.2c0.4-1.4,1.2-2.6,1.6-2.6c0.2,0,0.4,0.1,0.4,0.4c0,0.1,0,0.1,0,0.2c-0.1,1.5-1.4,2.9-2.2,3.4
		C14.9,12.1,15,11.6,15.1,11.2z"/>
</g>
</svg>
