<?xml version="1.0" encoding="utf-8"?>
<!-- Generator: Adobe Illustrator 25.2.3, SVG Export Plug-In . SVG Version: 6.00 Build 0)  -->
<svg version="1.1" id="Livello_1" xmlns="http://www.w3.org/2000/svg" xmlns:xlink="http://www.w3.org/1999/xlink" x="0px" y="0px"
	 viewBox="0 0 24 24" style="enable-background:new 0 0 24 24;" xml:space="preserve">
<style type="text/css">
	.st0{fill:#FFFFFF;}
</style>
<g>
	<path class="st0" d="M4.9,14.6C3.4,2.3,17.8,5.8,7.1,14.4c0.6,3.2,5.5,1.2,6.2-0.7c0.3-12.3,12.3-6.8,2.4,0.7c0.8,3.4,5.7,1,6.5-1
		c0.5-0.4,1.3-2.9,1.6-3.6C22.7,4.2,17.9,0,12,0C5.4,0,0,5.4,0,12c0,1.3,0.2,2.6,0.6,3.8C2.1,16.6,4.1,15.8,4.9,14.6z"/>
	<path class="st0" d="M15.6,11c-0.2,0.6-0.2,1.2-0.2,1.7C18.6,11.4,18.5,3.7,15.6,11z"/>
	<path class="st0" d="M13.8,15.2c-1.8,2.6-6.3,3.2-8.2,0.6c-0.1,0.7-2.8,1.6-4.2,1.7c2,3.9,6,6.5,10.7,6.5c6.3,0,11.5-4.9,12-11.1
		C22.4,16.7,16.2,19.9,13.8,15.2z"/>
	<path class="st0" d="M7,11c-0.2,0.6-0.2,1.2-0.2,1.7C10,11.4,10,3.7,7,11z"/>
</g>
</svg>
