<?xml version="1.0" encoding="utf-8"?>
<!-- Generator: Adobe Illustrator 25.2.3, SVG Export Plug-In . SVG Version: 6.00 Build 0)  -->
<svg version="1.1" id="Livello_1" xmlns="http://www.w3.org/2000/svg" xmlns:xlink="http://www.w3.org/1999/xlink" x="0px" y="0px"
	 viewBox="0 0 1920 5400" style="enable-background:new 0 0 1920 5400;" preserveAspectRatio="none">
<style type="text/css">
	.st0{fill:none;stroke:#F393FF;stroke-width:10;stroke-miterlimit:10;}
</style>
<path class="st0" d="M187.3,3.6c31,62.4,76.3,127.5,143.3,179.6c403.3,313.4,1092.2-234,1397.1,42.9c213.7,194.1,144.6,708,49,735.3
	c-44.6,12.7-122.9-72.2-110.3-98c21-43.1,330.9,6.1,367.7,140.9c23.6,86.5-65.3,208.8-171.6,269.6
	c-372.2,213-919.2-349.6-1262.3-134.8c-45.1,28.2-128.9,96.3-263.5,116.4c-98.9,14.8-241,22.5-257.4-24.5
	c-13.4-38.6,59.2-108.3,79.7-98c25.8,13-11.7,163.1-73.5,275.7c-82.5,150.3-170.5,164.8-251.2,263.5
	c-175.5,214.6-162,638.7,36.8,784.3c133.2,97.5,359.9,77.8,386,12.3c20.8-52.2-74.6-160.7-128.7-147.1
	c-62.9,15.9-106.2,206.2-42.9,343.1c85.1,184.4,365.4,276.6,569.9,226.7c86.1-21,123.7-58.6,153.2-36.8
	c68.8,50.9,5.5,358.8-183.8,465.7c-118,66.7-200.6,7.5-361.5,49c-143.3,36.9-366.8,154.4-379.9,288
	c-23.5,238.6,620.1,587.2,1237.7,710.3c418.5,83.4,634.4,25.2,747.6,183.8c144.1,202-14.6,565-177.7,848.3"/>
</svg>
