<svg  viewBox="0 0 579 230" fill="none" xmlns="http://www.w3.org/2000/svg">
  <path
    d="M2 228C2 228 17.3056 184.48 84.0782 160.291C132.147 142.766 160.093 152.508 166.474 155.102C172.856 157.696 184.738 163.063 193.32 182.699C201.902 202.336 192.929 209.127 188.332 211.263C183.907 213.324 171.682 212.612 163.98 189.007C156.327 165.556 172.415 120.484 212.978 100.263C244.934 84.3405 270.606 93.4973 282.122 102.196C285.741 104.943 288.381 108.784 289.701 113.261C291.413 119.085 291.975 125.648 286.939 130.073C280.41 135.822 262.978 132.439 258.699 108.809C254.42 85.1799 270.606 45.9838 294.665 34.9448C317.965 24.2619 346.865 31.8163 382.758 61.5758C415.056 88.3593 439.53 97.7959 461.853 72.8946C473.026 55.8019 466.073 66.1552 473.026 55.8019C525.003 -15.7668 577 4.71353 577 4.71353"
    stroke="#FEFAF3" stroke-width="3" stroke-miterlimit="10" stroke-linecap="round"/>
</svg>
