<svg viewBox="0 0 20 19" fill="none" xmlns="http://www.w3.org/2000/svg">
<path fill-rule="evenodd" clip-rule="evenodd" d="M14.0777 2.61604H6.15863C4.22612 2.61604 2.65951 4.182 2.65951 6.11373V13.6614C2.65951 15.5931 4.22612 17.1591 6.15863 17.1591H14.0777C16.0102 17.1591 17.5768 15.5931 17.5768 13.6614V6.11373C17.5768 4.182 16.0102 2.61604 14.0777 2.61604ZM6.15863 0.775146C3.20901 0.775146 0.817871 3.16531 0.817871 6.11373V13.6614C0.817871 16.6098 3.20901 19 6.15863 19H14.0777C17.0273 19 19.4184 16.6098 19.4184 13.6614V6.11373C19.4184 3.16531 17.0273 0.775146 14.0777 0.775146H6.15863Z" fill="black"/>
<path fill-rule="evenodd" clip-rule="evenodd" d="M10.0243 12.7997C11.5807 12.7997 12.8425 11.5379 12.8425 9.98142C12.8425 8.42493 11.5807 7.16315 10.0243 7.16315C8.46778 7.16315 7.20599 8.42493 7.20599 9.98142C7.20599 11.5379 8.46778 12.7997 10.0243 12.7997ZM10.0243 14.6785C12.6184 14.6785 14.7214 12.5756 14.7214 9.98142C14.7214 7.38727 12.6184 5.2843 10.0243 5.2843C7.43012 5.2843 5.32715 7.38727 5.32715 9.98142C5.32715 12.5756 7.43012 14.6785 10.0243 14.6785Z" fill="black"/>
<circle cx="14.909" cy="4.90844" r="1.12731" fill="black"/>
</svg>
