<svg width="30" height="31" viewBox="0 0 30 31" fill="none" xmlns="http://www.w3.org/2000/svg">
<g clip-path="url(#clip0)">
<path d="M20.7539 2.64648H8.67057C5.33385 2.64648 2.62891 5.4447 2.62891 8.89648V21.3965C2.62891 24.8483 5.33385 27.6465 8.67057 27.6465H20.7539C24.0906 27.6465 26.7956 24.8483 26.7956 21.3965V8.89648C26.7956 5.4447 24.0906 2.64648 20.7539 2.64648Z" stroke="#111111" stroke-width="2" stroke-linecap="round" stroke-linejoin="round"/>
<path d="M19.5455 14.3584C19.6947 15.3987 19.5229 16.4612 19.0547 17.3947C18.5864 18.3282 17.8456 19.0852 16.9375 19.558C16.0294 20.0308 15.0003 20.1954 13.9966 20.0283C12.9929 19.8612 12.0657 19.371 11.3468 18.6273C10.6279 17.8837 10.1541 16.9245 9.99254 15.8862C9.83103 14.8478 9.99012 13.7833 10.4472 12.8439C10.9043 11.9045 11.636 11.1381 12.5384 10.6537C13.4408 10.1693 14.4678 9.99162 15.4735 10.1459C16.4992 10.3032 17.4489 10.7977 18.1822 11.5563C18.9154 12.3148 19.3934 13.2972 19.5455 14.3584Z" stroke="#111111" stroke-width="2" stroke-linecap="round" stroke-linejoin="round"/>
</g>
<defs>
<clipPath id="clip0">
<rect width="29" height="30" fill="white" transform="translate(0.212402 0.146484)"/>
</clipPath>
</defs>
</svg>
