<?xml version="1.0" encoding="utf-8"?>
<!-- Generator: Adobe Illustrator 25.2.3, SVG Export Plug-In . SVG Version: 6.00 Build 0)  -->
<svg version="1.1" id="Livello_1" xmlns="http://www.w3.org/2000/svg"
     xmlns:xlink="http://www.w3.org/1999/xlink" x="0px" y="0px"
     viewBox="0 0 150 48" style="enable-background:new 0 0 150 48;" xml:space="preserve">
<style type="text/css">
	.st0{clip-path:url(#SVGID_2_);}
	.st1{fill:url(#SVGID_3_);}
	.st2{fill:#6764FF;}
	.st3{fill:url(#SVGID_4_);}
	.st4{fill:url(#SVGID_5_);}
	.st5{fill:url(#SVGID_6_);}
	.st6{fill:url(#SVGID_7_);}
	.st7{fill:url(#SVGID_8_);}
	.st8{fill:url(#SVGID_9_);}
	.st9{fill:url(#SVGID_10_);}
	.st10{fill:url(#SVGID_11_);}
	.st11{fill:url(#SVGID_12_);}
	.st12{fill:url(#SVGID_13_);}
	.st13{fill:url(#SVGID_14_);}
</style>
  <g>
	<defs>
		<rect id="SVGID_1_" width="150" height="48"/>
	</defs>
    <clipPath id="SVGID_2_">
		<use xlink:href="#SVGID_1_" style="overflow:visible;"/>
	</clipPath>
    <g class="st0">

			<linearGradient id="SVGID_3_" gradientUnits="userSpaceOnUse" x1="111.1278" y1="18.8886"
                      x2="132.7778" y2="15.3599" gradientTransform="matrix(1 0 0 -1 0 50)">
			<stop offset="0" style="stop-color:#2633B5"/>
        <stop offset="1" style="stop-color:#6764FF"/>
		</linearGradient>
      <path class="st1" d="M115.8,31.8c-0.6,0.9-0.7,1.7-1.2,2.6c1.6,0.5,16.5,3,34.2,2.5c0.7,0,1.2-0.6,1.2-1.2c0-0.7-0.6-1.3-1.3-1.2
			C130.5,34.9,118.3,32.7,115.8,31.8z"/>
      <path class="st2" d="M88.7,29.3c-0.1,0-0.2,0-0.3,0.1c-0.3,0.1-0.6,0.5-0.9,0.9c-1.1,1.5-3.4,4.2-6.8,4.2c-1.7,0-2.9-0.4-3.7-1.2
			c-0.5-0.5-0.9-1.2-1-1.9c2.2-1.5,7.4-6.3,7.4-11c0-2.2-1-3.5-3.7-3.5c-3.7,0-8.2,5.5-8.2,11.9c0,4.1,2.3,6.9,5.6,7.9
			c0.9,0.3,1.9,0.4,2.9,0.4c4.9,0,7.7-3.3,9.2-5.2c0.4-0.6,0.6-0.9,0.6-1.3C89.9,29.9,89.3,29.3,88.7,29.3z M79.4,19.5
			c0.5,0,0.8,0.3,0.8,1c0,3.5-3,6.7-4.8,7.8C75.5,24.1,78.1,19.5,79.4,19.5z"/>

      <linearGradient id="SVGID_4_" gradientUnits="userSpaceOnUse" x1="88.2858" y1="22.5807"
                      x2="81.4453" y2="15.5708" gradientTransform="matrix(1 0 0 -1 0 50)">
			<stop offset="0" style="stop-color:#2633B5"/>
        <stop offset="1" style="stop-color:#6764FF"/>
		</linearGradient>
      <path class="st3" d="M89.3,31.7c-1.5,2-4.3,5.2-9.2,5.2c-1,0-2-0.1-2.9-0.4l-0.1-3.3c0.8,0.8,2,1.2,3.7,1.2c3.4,0,5.7-2.7,6.8-4.2
			c0.3-0.5,0.6-0.8,0.9-0.9C88.7,30.1,89,30.9,89.3,31.7z"/>
      <path class="st2" d="M72.7,29.3c-0.4,0-0.7,0.3-1,0.8c0,0.1-0.1,0.1-0.1,0.2c-1.1,1.5-3.4,4.2-6.8,4.2c-1.2,0-2.2-0.2-3-0.7
			c-0.9-0.5-1.5-1.4-1.7-2.5c2.2-1.5,7.4-6.3,7.4-11c0-0.1,0-0.2,0-0.3c-0.1-2.1-1.1-3.2-3.7-3.2c-3.7,0-8.2,5.5-8.2,11.9
			c0,4.4,2.6,7.2,6.3,8c0.7,0.2,1.5,0.2,2.3,0.2c4.1,0,6.8-2.3,8.4-4.2c0.3-0.4,0.6-0.7,0.8-1c0.4-0.6,0.6-0.9,0.6-1.3
			C73.8,29.9,73.2,29.3,72.7,29.3z M63.4,19.5c0.5,0,0.8,0.3,0.8,1c0,0.3,0,0.6-0.1,0.9c-0.5,3.1-3.1,5.9-4.7,6.9
			C59.4,24.1,62,19.5,63.4,19.5z"/>
      <path class="st2" d="M57.1,29.3c-0.5,0-0.8,0.4-1.2,1c-0.1,0.1-0.2,0.3-0.3,0.4h0c-1.2,1.5-3.4,3.8-6.5,3.8
			c-0.6,0-1.1-0.1-1.6-0.2c-3.9-1.2-4.1-6.8-4.4-9.3c-0.4-3.2-3.2,0.3-3.2,3.8c0,5.1,3.5,8.1,8.3,8.3c0.1,0,0.2,0,0.3,0
			c3.9,0,6.4-2,8-3.8c0.4-0.5,0.8-1,1.1-1.4c0.4-0.6,0.6-0.9,0.6-1.3C58.3,29.9,57.7,29.3,57.1,29.3z"/>
      <path class="st2" d="M103.3,29.3c-0.4,0-0.7,0.3-1,0.8c0,0.1-0.1,0.1-0.1,0.2c-1.1,1.5-2.7,3.8-5.1,3.8c-1.6,0-2.9-0.8-3.7-2
			c-0.9-1.2-1.4-2.8-1.4-4c0,0,6.2-12.3,6.2-21V7c0-3.5-1.2-5.2-3.5-5.2C91.7,1.8,88,7.9,88,25c0,6.1,2.5,9.7,5.7,11.1
			c1,0.5,2.2,0.7,3.3,0.7c2.8,0,4.8-2.1,6.2-3.9c0.3-0.4,0.6-0.8,0.8-1.1c0.4-0.6,0.6-0.9,0.6-1.3C104.5,29.9,103.9,29.3,103.3,29.3
			z M94.5,5.3c0.5,0,0.7,0.6,0.7,1.4c0,0.4,0,0.8,0,1.2c-0.4,7.4-3.8,15.9-3.8,15.9C91.3,12.7,93.2,5.3,94.5,5.3z"/>
      <path class="st2" d="M50.9,5.6C50.8,1.8,49.7,0,47.3,0c-4.7,0.1-7.4,10.3-7.4,21.9c0,0.6,0.1,1.3,0.1,1.3c-0.5,0-1,0.1-1.4,0.2
			c-6,1.9-8.6,15.5-5.4,21.6c0.9,1.8,2.4,3,4.4,3c3.3,0,5.4-3.2,5.6-9.3c0.1-3.2,0.1-6.9,0.1-10.4c0,0,0,0,0,0c0-1,0-2.9,0-3.5
			C43.1,24.8,51,15,50.9,5.6L50.9,5.6z M39.8,37.8c-0.1,5.9-1.2,7.5-2.5,7.5c-0.7,0-1.3-0.6-1.6-1.7C34,39,35.7,26.1,39.8,26.1
			c0,1,0,1.9,0,2.6h0C39.8,31.5,39.8,34.4,39.8,37.8z M48.1,6.3c-0.6,7.4-4.9,14-4.9,14c0-1,0.1-2.1,0.2-3.1
			c0.6-7.7,2.6-14.3,3.9-14.3c0.6,0,0.9,0.4,1,1.5C48.1,5,48.1,5.7,48.1,6.3z"/>

      <linearGradient id="SVGID_5_" gradientUnits="userSpaceOnUse" x1="41.0089" y1="25.4933"
                      x2="47.4817" y2="37.3178" gradientTransform="matrix(1 0 0 -1 0 50)">
			<stop offset="0" style="stop-color:#2633B5"/>
        <stop offset="1" style="stop-color:#6764FF"/>
		</linearGradient>
      <path class="st4" d="M50.9,5.7c0.2,9.3-7.7,19.2-7.7,19.2c-0.2-2.7-0.1-5.2,0.1-7.6l0,0c-0.1,1-0.1,2-0.2,3.1c0,0,4.4-6.6,4.9-14
			L50.9,5.7z"/>

      <linearGradient id="SVGID_6_" gradientUnits="userSpaceOnUse" x1="57.713" y1="20.6833"
                      x2="49.9708" y2="14.5124" gradientTransform="matrix(1 0 0 -1 0 50)">
			<stop offset="0" style="stop-color:#2633B5"/>
        <stop offset="1" style="stop-color:#6764FF"/>
		</linearGradient>
      <path class="st5" d="M56.6,33.1C55,35,52.4,37,48.6,37c-0.1,0-0.2,0-0.3,0l-0.7-2.7c0.5,0.2,1,0.2,1.6,0.2c3.2,0,5.3-2.3,6.5-3.8
			h0C55.9,31.4,56.2,32.2,56.6,33.1z"/>

      <linearGradient id="SVGID_7_" gradientUnits="userSpaceOnUse" x1="73.9782" y1="21.4732"
                      x2="65.0706" y2="14.995" gradientTransform="matrix(1 0 0 -1 0 50)">
			<stop offset="0" style="stop-color:#2633B5"/>
        <stop offset="1" style="stop-color:#6764FF"/>
		</linearGradient>
      <path class="st6" d="M72.4,32.8c-1.6,1.9-4.2,4.2-8.4,4.2c-0.8,0-1.6-0.1-2.3-0.2l-0.1-2.9c0.7,0.4,1.7,0.7,3,0.7
			c3.4,0,5.7-2.7,6.8-4.2c0.1-0.1,0.1-0.1,0.1-0.2C71.8,30.9,72.1,31.8,72.4,32.8z"/>

      <linearGradient id="SVGID_8_" gradientUnits="userSpaceOnUse" x1="102.9614" y1="21.8393"
                      x2="96.3912" y2="15.6919" gradientTransform="matrix(1 0 0 -1 0 50)">
			<stop offset="0" style="stop-color:#2633B5"/>
        <stop offset="1" style="stop-color:#6764FF"/>
		</linearGradient>
      <path class="st7" d="M103.1,32.9c-1.4,1.9-3.4,3.9-6.2,3.9c-1.1,0-2.2-0.2-3.3-0.7L93.3,32c0.9,1.1,2.1,2,3.7,2
			c2.4,0,4-2.3,5.1-3.8c0-0.1,0.1-0.1,0.1-0.2C102.4,30.9,102.7,31.9,103.1,32.9z"/>

      <linearGradient id="SVGID_9_" gradientUnits="userSpaceOnUse" x1="58.9946" y1="19.5104"
                      x2="64.6757" y2="26.2055" gradientTransform="matrix(1 0 0 -1 0 50)">
			<stop offset="0" style="stop-color:#2633B5"/>
        <stop offset="1" style="stop-color:#6764FF"/>
		</linearGradient>
      <path class="st8" d="M67.4,20.3c0,4.7-5.1,9.5-7.4,11c-0.3-1.1-0.5-2.1-0.6-3.1c1.6-1,4.2-3.8,4.7-6.9l3.2-1.3
			C67.4,20.1,67.4,20.2,67.4,20.3z"/>

      <linearGradient id="SVGID_10_" gradientUnits="userSpaceOnUse" x1="74.6956" y1="19.8766"
                      x2="79.826" y2="25.134" gradientTransform="matrix(1 0 0 -1 0 50)">
			<stop offset="0" style="stop-color:#2633B5"/>
        <stop offset="1" style="stop-color:#6764FF"/>
		</linearGradient>
      <path class="st9" d="M83.4,20.3c0,4.7-5.1,9.5-7.4,11c-0.3-1.1-0.5-2.1-0.6-3.1c1.6-1,4.2-3.8,4.7-6.9l3.2-1.3
			C83.4,20.1,83.4,20.2,83.4,20.3z"/>

      <linearGradient id="SVGID_11_" gradientUnits="userSpaceOnUse" x1="88.5385" y1="21.3235"
                      x2="94.714" y2="34.556" gradientTransform="matrix(1 0 0 -1 0 50)">
			<stop offset="0" style="stop-color:#2633B5"/>
        <stop offset="1" style="stop-color:#6764FF"/>
		</linearGradient>
      <path class="st10"
            d="M98.1,7L98.1,7c0,8.8-6.2,21.1-6.2,21.1c-0.4-1.5-0.5-2.9-0.6-4.2c0,0,3.5-8.5,3.8-15.9L98.1,7z"/>
      <path class="st2" d="M118.3,26.4c0-5-2.6-9.4-7.4-9.4c-3,0-5,1.8-5.7,3.9c-1.2,1.1-3.2,3.8-3.2,8.2c0,5.1,3.6,7.9,7.7,7.9
			c2.2,0,4.1-1,5.5-2.5c0.5-0.7,1.2-1.5,1.6-2.2C117.7,30.4,118.3,28.4,118.3,26.4z M109.7,34.2c-2.6,0-4.4-2-4.4-5
			c0-1,0.1-1.8,0.3-2.6c0.5,1.3,1.2,2.4,2,3.5c0.8,1,1.8,1.8,2.9,2.5c0.5,0.3,1.1,0.7,1.7,0.9C111.4,33.9,110.6,34.2,109.7,34.2z
			 M113.9,31.5c-1.8-0.7-3.4-2-4.5-3.5c-1-1.5-1.7-3.2-1.7-5c0-2.2,1.3-3.5,3.2-3.5c2.4,0,4.1,2.7,4.1,7.2
			C115.2,28.6,114.7,30.2,113.9,31.5z"/>

      <linearGradient id="SVGID_12_" gradientUnits="userSpaceOnUse" x1="115.2315" y1="14.927"
                      x2="108.8775" y2="20.9786" gradientTransform="matrix(1 0 0 -1 0 50)">
			<stop offset="0" style="stop-color:#2633B5"/>
        <stop offset="1" style="stop-color:#6764FF"/>
		</linearGradient>
      <path class="st11" d="M113.9,31.5c-0.3,0.9-1.8,1.9-1.8,1.9l-1.7-0.9c-1.1-0.7-2.1-1.5-2.9-2.5l1.9-2
			C110.6,29.5,112.1,30.8,113.9,31.5z"/>

      <linearGradient id="SVGID_13_" gradientUnits="userSpaceOnUse" x1="35.7648" y1="30.6314"
                      x2="35.7648" y2="4.9708" gradientTransform="matrix(1 0 0 -1 0 50)">
			<stop offset="0" style="stop-color:#2633B5"/>
        <stop offset="1" style="stop-color:#6764FF"/>
		</linearGradient>
      <path class="st12"
            d="M35.6,43.6L33.1,45c-3.2-6.1-0.6-19.7,5.4-21.6l1.3,2.7C35.7,26.1,34,38.9,35.6,43.6z"/>

      <linearGradient id="SVGID_14_" gradientUnits="userSpaceOnUse" x1="44.053" y1="34.9314"
                      x2="16.2721" y2="17.0495" gradientTransform="matrix(1 0 0 -1 0 50)">
			<stop offset="0" style="stop-color:#2633B5"/>
        <stop offset="0.8146" style="stop-color:#6764FF"/>
		</linearGradient>
      <path class="st13" d="M1.3,34.5C0.6,34.5,0,35,0,35.7C0,36.4,0.6,37,1.3,37C26,37,40,25.9,40,25.9v-4.5
			C32.5,28.6,17.5,34.5,1.3,34.5z"/>
	</g>
</g>
</svg>
