<svg width="363" height="119" viewBox="0 0 363 119" fill="none" xmlns="http://www.w3.org/2000/svg">
<path d="M282.756 79.7934C285.016 75.4116 286.428 70.3231 286.428 65.376C286.428 52.9374 280.213 42.0537 268.631 42.0537C261.428 42.0537 256.626 46.4355 254.789 51.6653C251.964 54.4922 247.162 60.9942 247.162 71.8779C247.162 84.4578 255.778 91.3838 265.665 91.3838C270.891 91.3838 275.552 88.9809 278.942 85.1645C279.507 85.2211 280.086 85.2776 280.651 85.32C281.838 83.6663 282.714 81.5602 283.547 79.7934H282.756V79.7934ZM265.665 84.7405C259.45 84.7405 254.931 79.7934 254.931 72.302C254.931 69.7577 255.213 67.7789 255.637 65.8C258.32 73.4327 264.394 79.5107 271.598 82.903C269.761 84.0338 267.784 84.7405 265.665 84.7405ZM275.835 78.0972C267.36 74.5635 261.004 66.0827 261.004 56.8951C261.004 51.3826 264.253 48.1316 268.773 48.1316C274.564 48.1316 278.801 54.9163 278.801 65.9414C278.801 70.7471 277.671 74.8462 275.835 78.0972Z" fill="black"/>
<path d="M134.155 71.1721C134.155 55.3413 144.89 41.772 153.93 41.772C160.427 41.772 162.828 44.8816 162.828 50.3941C162.828 62.1259 150.398 73.9991 145.031 77.6741C145.879 82.4799 149.551 85.4482 156.331 85.4482C164.664 85.4482 170.173 78.6635 172.856 74.9885C173.845 73.575 174.551 72.5856 175.681 72.5856C176.953 72.5856 178.506 74.1404 178.506 75.4125C178.506 76.5433 178.082 77.2501 177.094 78.6635C173.563 83.6107 166.783 91.6674 154.918 91.6674C142.912 91.6674 134.155 84.1761 134.155 71.1721ZM155.201 50.6768C155.201 48.9807 154.495 48.2739 153.223 48.2739C149.975 48.2739 143.619 59.8644 143.619 70.0414C147.856 67.3558 155.201 59.299 155.201 50.6768Z" fill="black"/>
<path d="M96.6538 71.1707C96.6538 62.6616 103.377 53.8415 104.281 61.8842C105.058 68.7819 105.595 85.5598 118.843 85.4467C127.177 85.376 132.685 78.6621 135.369 74.987C136.358 73.5736 137.064 72.5841 138.194 72.5841C139.465 72.5841 141.019 74.139 141.019 75.4111C141.019 76.5419 140.595 77.2486 139.606 78.6621C136.075 83.6092 129.296 91.666 117.431 91.666C105.411 91.666 96.6538 84.1746 96.6538 71.1707Z" fill="black"/>
<path d="M172.998 71.1721C172.998 55.3413 183.733 41.772 192.772 41.772C199.27 41.772 201.671 44.8816 201.671 50.3941C201.671 62.1259 189.241 73.9991 183.874 77.6741C184.721 82.4799 188.394 85.4482 195.174 85.4482C203.507 85.4482 209.016 78.6635 211.699 74.9885C212.688 73.575 213.394 72.5856 214.524 72.5856C215.795 72.5856 217.349 74.1404 217.349 75.4125C217.349 76.5433 216.925 77.2501 215.937 78.6635C212.405 83.6107 205.626 91.6674 193.761 91.6674C181.755 91.6674 172.998 84.1761 172.998 71.1721ZM194.044 50.6768C194.044 48.9807 193.337 48.2739 192.066 48.2739C188.817 48.2739 182.461 59.8644 182.461 70.0414C186.699 67.3558 194.044 59.299 194.044 50.6768Z" fill="black"/>
<path d="M212.684 61.9843C212.684 19.5802 221.583 4.45605 228.645 4.45605C234.295 4.45605 237.119 8.69646 237.119 17.46C237.119 39.0861 222.148 69.617 222.148 69.617C222.148 75.2709 226.385 84.3171 234.577 84.3171C240.368 84.3171 244.323 78.6632 247.007 74.9882C247.995 73.5747 248.702 72.5853 249.832 72.5853C251.103 72.5853 252.656 74.1401 252.656 75.4122C252.656 76.543 252.233 77.2497 251.244 78.6632C247.713 83.6103 242.487 91.2431 234.295 91.2431C223.56 91.2431 212.684 82.1969 212.684 61.9843ZM220.735 59.1573C220.735 59.1573 230.057 35.6937 230.057 16.6119C230.057 14.633 229.492 13.0782 228.362 13.0782C225.396 13.0782 220.735 31.4533 220.735 59.1573Z" fill="black"/>
<path d="M3.14977 85.3895C1.41245 85.3895 0 86.803 0 88.5416C0 90.266 1.39833 91.6936 3.12152 91.6936C78.5888 91.6936 99.366 58.4064 99.366 58.4064V50.3496C75.3967 73.7708 42.3735 85.3895 3.14977 85.3895Z" fill="black"/>
<path d="M104.325 61.5586C104.325 61.5586 123.478 37.0067 123.026 13.9671C122.842 4.49687 120.201 -0.111046 114.41 0.00203109C103.111 0.228186 96.5567 25.6282 96.4014 54.3641C96.3872 55.8341 96.585 57.5444 96.585 57.5444C74.9604 57.5444 68.1523 118.988 90.5821 118.988C98.4918 118.988 103.732 111.044 104.029 95.9201C104.184 88.0046 104.368 78.9302 104.368 70.2373C104.368 70.2373 104.368 70.2373 104.353 70.2373C104.382 67.7072 104.353 63.0993 104.325 61.5586ZM96.1754 93.6585C95.8929 108.359 93.2657 112.203 90.1583 112.203C80.4689 112.203 84.226 64.8379 96.2319 64.8379C96.2036 67.2973 96.1895 69.6578 96.1895 71.3964H96.2036C96.246 77.9973 96.3449 85.3049 96.1754 93.6585ZM114.001 7.22486C115.413 7.19659 116.289 8.31323 116.331 10.8575C116.727 31.0701 104.255 50.4064 104.255 50.4064C104.947 28.1866 110.469 7.29553 114.001 7.22486Z" fill="black"/>
<path d="M280.27 78.8315C278.928 81.0931 278.646 82.9447 277.304 85.2063C281.216 86.4643 317.248 92.5422 359.989 91.4256C361.655 91.3832 362.997 90.0121 362.997 88.3301C362.997 86.5915 361.556 85.2063 359.819 85.2487C315.906 86.3229 286.329 80.9235 280.27 78.8315Z" fill="black"/>
</svg>
