<svg width="76" height="48" viewBox="0 0 76 48" fill="none" xmlns="http://www.w3.org/2000/svg">
<path fill-rule="evenodd" clip-rule="evenodd" d="M58.8222 13.5355C56.8417 13.5355 54.9414 13.8815 53.1749 14.5118C53.1749 14.5118 52.0077 10.2856 55.929 2.29975L50.6081 0.078392C50.6081 0.078392 50.4154 0.00582123 50.4148 0.00582123C49.5937 -0.302433 44.0451 13.2404 43.6753 14.3607C41.3481 21.405 39.1707 31.3555 42.6354 38.3039C45.6957 44.4402 52.1605 47.7051 58.8222 47.7051C68.1774 47.7051 75.7612 40.0563 75.7612 30.6203C75.7612 21.1843 68.1774 13.5355 58.8222 13.5355ZM17.9941 13.5355C16.0136 13.5355 14.1133 13.8815 12.3468 14.5118C12.3468 14.5118 11.1797 10.2856 15.1009 2.29975L9.78001 0.078392C9.78001 0.078392 9.58737 0.00582123 9.58678 0.00582123C8.76566 -0.302433 3.21703 13.2404 2.8472 14.3607C0.519417 21.405 -1.65734 31.3555 1.80728 38.3039C4.86758 44.4402 11.3325 47.7051 17.9941 47.7051C27.3493 47.7051 34.9332 40.0563 34.9332 30.6203C34.9332 21.1843 27.3493 13.5355 17.9941 13.5355Z" fill="#F393FF"/>
</svg>
