<svg width="30" height="31" viewBox="0 0 30 31" fill="none" xmlns="http://www.w3.org/2000/svg">
<g clip-path="url(#clip0)">
<path d="M28.0042 3.89734C26.8471 4.74168 25.5659 5.38747 24.2101 5.80984C23.4823 4.94422 22.5152 4.3307 21.4394 4.05224C20.3636 3.77379 19.2311 3.84383 18.1951 4.2529C17.159 4.66197 16.2694 5.39034 15.6466 6.33948C15.0237 7.28863 14.6977 8.41276 14.7126 9.55984V10.8098C12.5891 10.8668 10.4849 10.3796 8.58753 9.39164C6.69013 8.40368 5.05836 6.94563 3.83756 5.14734C3.83756 5.14734 -0.995768 16.3973 9.87923 21.3973C7.3907 23.1448 4.42621 24.021 1.4209 23.8973C12.2959 30.1473 25.5876 23.8973 25.5876 9.52234C25.5864 9.17415 25.5541 8.82683 25.4909 8.48484C26.7241 7.2267 27.5944 5.63823 28.0042 3.89734Z" stroke="#111111" stroke-width="2" stroke-linecap="round" stroke-linejoin="round"/>
</g>
<defs>
<clipPath id="clip0">
<rect width="29" height="30" fill="white" transform="translate(0.212402 0.146484)"/>
</clipPath>
</defs>
</svg>
