<?xml version="1.0" encoding="utf-8"?>
<!-- Generator: Adobe Illustrator 25.2.3, SVG Export Plug-In . SVG Version: 6.00 Build 0)  -->
<svg version="1.1" id="Livello_1" xmlns="http://www.w3.org/2000/svg" xmlns:xlink="http://www.w3.org/1999/xlink" x="0px" y="0px"
	 viewBox="0 0 1063 244" style="enable-background:new 0 0 1063 244;" xml:space="preserve">
<style type="text/css">
	.st0{fill:none;stroke:#000001;stroke-width:3;stroke-linecap:round;}
	.st1{fill:none;stroke:#5E009F;stroke-width:3;stroke-linecap:round;}
</style>
<path id="completo" class="st0" d="M220,85.5c-36.8,20.8-160.5,73-207.5,18.5C-37,43.5,98-21,212,9.5C326,40,396,135,373.5,158.5
	s-42.5-35,20.5-49c63-14,153,11.5,171,36.5s0,46-11.5,41.5c-15-5.9-15.8-40,27.5-54c37-12,109.5,4,186.5,52
	c100,62.3,275,80,292,18.5S944.5,85.5,856,109.5c-88.5,24-110.5-23-82-69.5"/>
<path id="trim2" class="st1" d="M375.1,156.4c-0.5,0.7-1,1.4-1.6,2.1c-22.5,23.5-42.5-35,20.5-49c63-14,153,11.5,171,36.5
	s0,46-11.5,41.5c-15-5.9-15.8-40,27.5-54c37-12,109.5,4,186.5,52c100,62.3,275,80,292,18.5c0.1-0.4,0.2-0.8,0.3-1.3"/>
<path id="trim1" class="st1" d="M220,85.5c-36.8,20.8-160.5,73-207.5,18.5c-0.5-0.6-1-1.3-1.5-1.9"/>
</svg>
